<?xml version="1.0" encoding="utf-8"?>
<!-- Generator: Adobe Illustrator 16.0.0, SVG Export Plug-In . SVG Version: 6.00 Build 0)  -->
<!DOCTYPE svg PUBLIC "-//W3C//DTD SVG 1.0//EN" "http://www.w3.org/TR/2001/REC-SVG-20010904/DTD/svg10.dtd">
<svg width="80px" height="80px" viewBox="0 0 80 80" version="1.1" xmlns="http://www.w3.org/2000/svg" xmlns:xlink="http://www.w3.org/1999/xlink">
    <g id="Page-1" stroke="currentColor" stroke-width="1" fill="currentColor" fill-rule="evenodd">
        <g id="01d" transform="translate(-0.000387, -0.002881)" fill-rule="nonzero">
            <path d="M40.0003872,16.6698814 C27.1163872,16.6698814 16.6673872,27.1188814 16.6673872,40.0028814 C16.6673872,52.8908814 27.1163872,63.3358814 40.0003872,63.3358814 C52.8843872,63.3358814 63.3333872,52.8908814 63.3333872,40.0028814 C63.3333872,27.1188814 52.8843872,16.6698814 40.0003872,16.6698814 Z M40.0003872,56.6698814 C30.7943872,56.6698814 23.3333872,49.2088814 23.3333872,40.0028814 C23.3333872,30.7968814 30.7943872,23.3358814 40.0003872,23.3358814 C49.2023872,23.3358814 56.6673872,30.7958814 56.6673872,40.0028814 C56.6673872,49.2098814 49.2023872,56.6698814 40.0003872,56.6698814 Z" id="Shape"></path>
            <rect id="Rectangle" x="36.6673872" y="0.0028814" width="6.666" height="10"></rect>
            <rect id="Rectangle" x="36.6673872" y="70.0028814" width="6.666" height="10"></rect>
            <rect id="Rectangle" x="0.0003872" y="36.6698814" width="10" height="6.666"></rect>
            <rect id="Rectangle" x="70.0003872" y="36.6698814" width="10" height="6.666"></rect>
            <rect id="Rectangle" transform="translate(10.572941, 10.573034) rotate(-134.991897) translate(-10.572941, -10.573034) " x="-1.04294812" y="7.23756565" width="23.2317774" height="6.67093609"></rect>
            <rect id="Rectangle" transform="translate(69.428673, 69.431204) rotate(-135.000000) translate(-69.428673, -69.431204) " x="57.8117844" y="66.0972358" width="23.2337772" height="6.66793605"></rect>
            <rect id="Rectangle" transform="translate(10.573034, 69.428536) rotate(135.008103) translate(-10.573034, -69.428536) " x="-1.04285502" y="66.0930682" width="23.2317774" height="6.67093609"></rect>
            <rect id="Rectangle" transform="translate(69.428101, 10.572759) rotate(135.000000) translate(-69.428101, -10.572759) " x="57.8112128" y="7.23879097" width="23.2337772" height="6.66793605"></rect>
        </g>
    </g>
</svg>